<svg xmlns="http://www.w3.org/2000/svg" viewBox="0 0 100 100" width="100%" height="100%">
  <circle cx="50" cy="50" r="48" fill="#F0FDFA" stroke="#0D9488" stroke-width="3"/>
  <!-- Indigo Indigo Brocade Vest / Shirt -->
  <path d="M22 88 C25 65, 40 62, 50 62 C60 62, 75 65, 78 88 Z" fill="#134E4A"/>
  <!-- Brocade border neckline -->
  <path d="M42 62 L50 74 L58 62 Z" fill="#F59E0B"/>
  <circle cx="50" cy="42" r="22" fill="#FDDFB7"/>
  <!-- Indigo Tày Headwrap / Beret -->
  <path d="M26 36 C26 20, 42 16, 50 16 C60 16, 74 20, 74 36 C68 28, 58 26, 50 26 C42 26, 32 28, 26 36 Z" fill="#042F2E"/>
  <rect x="28" y="30" width="44" height="6" rx="2" fill="#0F766E"/>
  <line x1="32" y1="33" x2="68" y2="33" stroke="#FDE047" stroke-width="1.5" stroke-dasharray="2,2"/>
  <circle cx="42" cy="44" r="2.5" fill="#1E293B"/>
  <circle cx="58" cy="44" r="2.5" fill="#1E293B"/>
  <circle cx="43" cy="43" r="0.8" fill="#FFFFFF"/>
  <circle cx="59" cy="43" r="0.8" fill="#FFFFFF"/>
  <path d="M45 52 Q50 57 55 52" fill="none" stroke="#1E293B" stroke-width="2" stroke-linecap="round"/>
</svg>
