<svg xmlns="http://www.w3.org/2000/svg" viewBox="0 0 100 100" width="100%" height="100%">
  <circle cx="50" cy="50" r="48" fill="#FFFBEB" stroke="#B45309" stroke-width="3"/>
  <!-- Ê Đê Traditional Black & Red Brocade Shirt -->
  <path d="M22 88 C25 65, 40 62, 50 62 C60 62, 75 65, 78 88 Z" fill="#18181B"/>
  <rect x="47" y="62" width="6" height="26" fill="#DC2626"/>
  <line x1="28" y1="80" x2="72" y2="80" stroke="#F59E0B" stroke-width="2"/>
  <!-- Head & Hair with Headband -->
  <circle cx="50" cy="42" r="22" fill="#FDDFB7"/>
  <path d="M28 36 C28 20, 42 16, 50 16 C60 16, 72 20, 72 36 C64 26, 56 24, 50 24 C44 24, 34 26, 28 36 Z" fill="#18181B"/>
  <!-- Headband / Khăn vấn đỏ viền vàng -->
  <rect x="27" y="26" width="46" height="5" rx="1.5" fill="#DC2626"/>
  <line x1="29" y1="28.5" x2="71" y2="28.5" stroke="#FBBF24" stroke-width="1"/>
  <circle cx="42" cy="44" r="2.5" fill="#1E293B"/>
  <circle cx="58" cy="44" r="2.5" fill="#1E293B"/>
  <circle cx="43" cy="43" r="0.8" fill="#FFFFFF"/>
  <circle cx="59" cy="43" r="0.8" fill="#FFFFFF"/>
  <path d="M45 52 Q50 57 55 52" fill="none" stroke="#1E293B" stroke-width="2" stroke-linecap="round"/>
</svg>
