<svg xmlns="http://www.w3.org/2000/svg" viewBox="0 0 100 100" width="100%" height="100%">
  <circle cx="50" cy="50" r="48" fill="#FDF2F8" stroke="#F43F5E" stroke-width="3"/>
  <!-- Long Bunny Ears -->
  <ellipse cx="36" cy="24" rx="7" ry="18" fill="#FFFFFF" stroke="#F43F5E" stroke-width="2"/>
  <ellipse cx="36" cy="24" rx="4" ry="13" fill="#FDA4AF"/>
  <ellipse cx="64" cy="24" rx="7" ry="18" fill="#FFFFFF" stroke="#F43F5E" stroke-width="2"/>
  <ellipse cx="64" cy="24" rx="4" ry="13" fill="#FDA4AF"/>
  <!-- Head -->
  <circle cx="50" cy="56" r="26" fill="#FFFFFF" stroke="#E2E8F0" stroke-width="1.5"/>
  <!-- Cheeks -->
  <circle cx="34" cy="62" r="4" fill="#FDA4AF" opacity="0.6"/>
  <circle cx="66" cy="62" r="4" fill="#FDA4AF" opacity="0.6"/>
  <!-- Eyes -->
  <ellipse cx="40" cy="52" rx="3" ry="4" fill="#BE123C"/>
  <ellipse cx="60" cy="52" rx="3" ry="4" fill="#BE123C"/>
  <circle cx="41" cy="50" r="1.2" fill="#FFFFFF"/>
  <circle cx="61" cy="50" r="1.2" fill="#FFFFFF"/>
  <!-- Nose & Mouth -->
  <polygon points="48,58 52,58 50,61" fill="#FB7185"/>
  <path d="M46 62 Q50 65 50 61 Q50 65 54 62" fill="none" stroke="#881337" stroke-width="1.5" stroke-linecap="round"/>
</svg>
