<svg xmlns="http://www.w3.org/2000/svg" viewBox="0 0 100 100" width="100%" height="100%">
  <defs>
    <linearGradient id="bgGrad4" x1="0%" y1="0%" x2="100%" y2="100%">
      <stop offset="0%" stop-color="#ede9fe"/>
      <stop offset="100%" stop-color="#ddd6fe"/>
    </linearGradient>
    <linearGradient id="skinGrad4" x1="0%" y1="0%" x2="100%" y2="100%">
      <stop offset="0%" stop-color="#fed7aa"/>
      <stop offset="100%" stop-color="#fbcfe8"/>
    </linearGradient>
  </defs>
  <circle cx="50" cy="50" r="46" fill="url(#bgGrad4)" stroke="#8b5cf6" stroke-width="2"/>
  <!-- Commander Cap (Chi huy - Purple Commander Peak Cap) -->
  <path d="M24 32 Q50 12 76 32 Q80 37 74 42 Q50 45 26 42 Q20 37 24 32 Z" fill="#5b21b6"/>
  <path d="M26 41 Q50 47 74 41 L76 45 Q50 51 24 45 Z" fill="#312e81"/>
  <!-- Laurel / Insignia on Cap -->
  <polygon points="50,23 52,28 57,28 53,31 55,36 50,33 45,36 47,31 43,28 48,28" fill="#fde047"/>
  <path d="M42 34 Q50 38 58 34" stroke="#fbbf24" stroke-width="1.5" fill="none"/>
  <!-- Face -->
  <circle cx="50" cy="51" r="18" fill="url(#skinGrad4)"/>
  <!-- Eyes & Confident Smile -->
  <circle cx="44" cy="50" r="2.5" fill="#1e293b"/>
  <circle cx="56" cy="50" r="2.5" fill="#1e293b"/>
  <circle cx="45" cy="49" r="0.8" fill="#ffffff"/>
  <circle cx="57" cy="49" r="0.8" fill="#ffffff"/>
  <path d="M45 57 Q50 62 55 57" stroke="#b91c1c" stroke-width="2" fill="none" stroke-linecap="round"/>
  <!-- Cheeks -->
  <circle cx="40" cy="55" r="2.5" fill="#f43f5e" opacity="0.4"/>
  <circle cx="60" cy="55" r="2.5" fill="#f43f5e" opacity="0.4"/>
  <!-- Uniform Body (Level 4: Purple/Violet Commander Coat) -->
  <path d="M26 75 Q50 65 74 75 L82 96 L18 96 Z" fill="#4c1d95"/>
  <path d="M42 69 L50 78 L58 69" fill="#ede9fe"/>
  <!-- Gold Double Epaulets & Medals -->
  <rect x="20" y="74" width="10" height="4.5" rx="2" fill="#fbbf24"/>
  <rect x="70" y="74" width="10" height="4.5" rx="2" fill="#fbbf24"/>
  <circle cx="46" cy="85" r="2.5" fill="#f59e0b"/>
  <circle cx="54" cy="85" r="2.5" fill="#3b82f6"/>
</svg>
