<svg xmlns="http://www.w3.org/2000/svg" viewBox="0 0 256 256"><rect width="256" height="256" rx="56" fill="#fff1cb"/><circle cx="128" cy="128" r="83" fill="#fff"/><circle cx="128" cy="132" r="56" fill="#efc7a3"/><path d="M69 113c5-62 113-72 119 0-32-19-82-19-119 0Z" fill="#d5a632"/><path d="M77 104c29-18 70-21 103 0" fill="none" stroke="#fff4ae" stroke-width="9"/><circle cx="108" cy="133" r="6" fill="#3d3425"/><circle cx="148" cy="133" r="6" fill="#3d3425"/><path d="M107 158c13 11 29 11 42 0" fill="none" stroke="#a45c52" stroke-width="7" stroke-linecap="round"/><path d="M44 239c11-48 43-69 84-69s73 21 84 69" fill="#d5a632"/><circle cx="128" cy="202" r="15" fill="#fff1a0"/><path d="m128 190 4 8 9 1-7 6 2 9-8-5-8 5 2-9-7-6 9-1Z" fill="#9a7217"/></svg>
